<svg xmlns="http://www.w3.org/2000/svg" width="1024" height="1024" viewBox="0 0 1024 1024" version="1.1"><path d="M 498.500 184.976 C 450.938 190.617, 409.217 224.468, 393.707 270 C 388.108 286.438, 387.730 289.878, 387.274 328.500 L 386.850 364.500 352.675 364.500 L 318.500 364.500 312.792 367.303 C 306.341 370.471, 301.618 375.761, 299.495 382.198 C 298.715 384.564, 296.244 402.025, 294.004 421 C 289.316 460.718, 289.436 460, 287.481 460 C 286.190 460, 286 452.564, 286 402.059 L 286 344.117 292.002 340.918 C 299.332 337.011, 305.303 330.720, 308.840 323.175 C 311.103 318.348, 311.500 316.156, 311.500 308.500 C 311.500 300.698, 311.118 298.672, 308.626 293.278 C 305.260 285.991, 297.267 277.890, 290.481 274.888 C 272.476 266.924, 252.337 273.823, 242.927 291.179 C 239.642 297.238, 239.500 297.937, 239.500 308.016 C 239.500 317.881, 239.703 318.944, 242.787 325.213 C 246.241 332.236, 252.311 338.496, 258.525 341.445 L 262 343.094 261.972 403.297 L 261.943 463.500 256.422 466.842 C 249.730 470.893, 243.875 478.044, 241.034 485.637 C 238.984 491.118, 238.932 492.569, 239.212 536.390 L 239.500 581.500 242.917 587.803 C 249.007 599.034, 259.664 606.643, 272.085 608.630 L 276.149 609.279 275.576 613.890 C 273.202 632.969, 256 797.760, 256 801.420 C 256 806.850, 259.074 816.600, 262.434 821.829 C 268.240 830.864, 278.778 838.061, 289.051 840.010 C 296.316 841.387, 727.790 841.365, 735.114 839.986 C 747.594 837.637, 758.267 829.302, 764.173 817.294 C 767.427 810.676, 767.498 810.254, 767.409 798.014 C 767.346 789.402, 764.306 758.362, 757.659 698.464 C 752.347 650.595, 748 610.972, 748 610.415 C 748 609.857, 750.610 608.861, 753.799 608.202 C 756.988 607.544, 761.918 605.849, 764.753 604.436 C 771.623 601.012, 780.204 591.621, 783.165 584.285 C 785.489 578.528, 785.500 578.287, 785.500 534.448 L 785.500 490.395 781.728 482.763 C 777.804 474.824, 771.858 468.512, 765 465.005 L 761.500 463.215 761.765 403.193 L 762.031 343.172 766.300 340.670 C 771.982 337.340, 779.021 329.664, 782.046 323.500 C 784.154 319.204, 784.500 317.091, 784.500 308.500 C 784.500 299.785, 784.161 297.778, 781.865 292.880 C 773.300 274.614, 752.049 266.692, 733.558 274.871 C 715.417 282.896, 706.999 305.212, 715.285 323.312 C 718.604 330.562, 725.698 338.106, 732.014 341.105 L 737 343.472 737 402.436 C 737 439.463, 736.648 461.047, 736.055 460.450 C 735.535 459.928, 733.936 449.600, 732.502 437.500 C 727.265 393.320, 726.006 384.884, 723.929 380.056 C 721.352 374.065, 716.946 369.741, 710.534 366.909 C 705.762 364.801, 704.259 364.712, 671.879 364.608 L 638.188 364.500 637.734 328.500 C 637.299 293.972, 637.174 292.071, 634.696 282 C 631.650 269.622, 629.303 263.338, 623.692 252.536 C 606.418 219.285, 571.772 193.590, 534.654 186.501 C 525.210 184.697, 507.240 183.939, 498.500 184.976 M 498.539 218.042 C 486.064 220.006, 470.460 226.147, 460.458 233.029 C 452.782 238.310, 442.576 248.526, 437.250 256.260 C 431.115 265.168, 428.423 270.412, 425.330 279.481 C 420.805 292.747, 420 300.961, 420 333.881 L 420 364.500 512.250 364.338 L 604.500 364.176 604.428 330.338 C 604.357 297.243, 604.299 296.290, 601.781 286.930 C 592.824 253.633, 567.412 228.465, 534.079 219.878 C 525.252 217.605, 507.232 216.674, 498.539 218.042 M 394.500 487.447 C 387.142 489.327, 384.384 490.603, 378.004 495.078 C 363.911 504.964, 355.937 523.328, 358.710 539.514 C 361.106 553.507, 370.233 566.648, 381.858 572.844 C 401.692 583.415, 424.248 580.134, 438.776 564.566 C 450.235 552.285, 454.458 536.855, 450.508 521.693 C 443.991 496.672, 418.766 481.248, 394.500 487.447 M 608.500 487.388 C 600.748 489.275, 594.147 492.981, 587.491 499.181 C 576.777 509.162, 572.428 520.275, 573.231 535.623 C 573.648 543.600, 574.208 545.906, 577.322 552.463 C 593.820 587.203, 643.514 587.767, 660.779 553.411 C 678.466 518.215, 646.692 478.088, 608.500 487.388 M 407.990 635.250 C 403.342 638.413, 400.943 642.009, 400.304 646.768 C 399.450 653.138, 402.859 658.852, 414.421 670.432 C 433.938 689.978, 457.178 702.548, 485.053 708.632 C 497.038 711.247, 526.968 711.246, 538.960 708.629 C 566.621 702.592, 590.219 689.859, 609.547 670.541 C 623.672 656.423, 626.604 649.405, 621.882 641.004 C 618.240 634.524, 609.577 631.309, 602.750 633.905 C 601.440 634.403, 595.899 639.280, 590.435 644.744 C 576.563 658.615, 563.673 666.829, 546.743 672.587 C 525.433 679.836, 498.521 679.847, 477.321 672.616 C 460.389 666.841, 444.280 656.442, 432.157 643.461 C 428.304 639.336, 423.880 635.297, 422.326 634.486 C 418.100 632.282, 411.863 632.614, 407.990 635.250" stroke="none" fill="#382b6b" fill-rule="evenodd"/><path d="M 0 512.001 L 0 1024.002 512.250 1023.751 L 1024.500 1023.500 1024.751 511.750 L 1025.002 0 512.501 0 L 0 0 0 512.001 M 0.496 512.500 C 0.496 794.100, 0.610 909.151, 0.750 768.168 C 0.890 627.186, 0.890 396.786, 0.750 256.168 C 0.610 115.551, 0.496 230.900, 0.496 512.500 M 498.500 184.976 C 450.938 190.617, 409.217 224.468, 393.707 270 C 388.108 286.438, 387.730 289.878, 387.274 328.500 L 386.850 364.500 352.675 364.500 L 318.500 364.500 312.792 367.303 C 306.341 370.471, 301.618 375.761, 299.495 382.198 C 298.715 384.564, 296.244 402.025, 294.004 421 C 289.316 460.718, 289.436 460, 287.481 460 C 286.190 460, 286 452.564, 286 402.059 L 286 344.117 292.002 340.918 C 299.332 337.011, 305.303 330.720, 308.840 323.175 C 311.103 318.348, 311.500 316.156, 311.500 308.500 C 311.500 300.698, 311.118 298.672, 308.626 293.278 C 305.260 285.991, 297.267 277.890, 290.481 274.888 C 272.476 266.924, 252.337 273.823, 242.927 291.179 C 239.642 297.238, 239.500 297.937, 239.500 308.016 C 239.500 317.881, 239.703 318.944, 242.787 325.213 C 246.241 332.236, 252.311 338.496, 258.525 341.445 L 262 343.094 261.972 403.297 L 261.943 463.500 256.422 466.842 C 249.730 470.893, 243.875 478.044, 241.034 485.637 C 238.984 491.118, 238.932 492.569, 239.212 536.390 L 239.500 581.500 242.917 587.803 C 249.007 599.034, 259.664 606.643, 272.085 608.630 L 276.149 609.279 275.576 613.890 C 273.202 632.969, 256 797.760, 256 801.420 C 256 806.850, 259.074 816.600, 262.434 821.829 C 268.240 830.864, 278.778 838.061, 289.051 840.010 C 296.316 841.387, 727.790 841.365, 735.114 839.986 C 747.594 837.637, 758.267 829.302, 764.173 817.294 C 767.427 810.676, 767.498 810.254, 767.409 798.014 C 767.346 789.402, 764.306 758.362, 757.659 698.464 C 752.347 650.595, 748 610.972, 748 610.415 C 748 609.857, 750.610 608.861, 753.799 608.202 C 756.988 607.544, 761.918 605.849, 764.753 604.436 C 771.623 601.012, 780.204 591.621, 783.165 584.285 C 785.489 578.528, 785.500 578.287, 785.500 534.448 L 785.500 490.395 781.728 482.763 C 777.804 474.824, 771.858 468.512, 765 465.005 L 761.500 463.215 761.765 403.193 L 762.031 343.172 766.300 340.670 C 771.982 337.340, 779.021 329.664, 782.046 323.500 C 784.154 319.204, 784.500 317.091, 784.500 308.500 C 784.500 299.785, 784.161 297.778, 781.865 292.880 C 773.300 274.614, 752.049 266.692, 733.558 274.871 C 715.417 282.896, 706.999 305.212, 715.285 323.312 C 718.604 330.562, 725.698 338.106, 732.014 341.105 L 737 343.472 737 402.436 C 737 439.463, 736.648 461.047, 736.055 460.450 C 735.535 459.928, 733.936 449.600, 732.502 437.500 C 727.265 393.320, 726.006 384.884, 723.929 380.056 C 721.352 374.065, 716.946 369.741, 710.534 366.909 C 705.762 364.801, 704.259 364.712, 671.879 364.608 L 638.188 364.500 637.734 328.500 C 637.299 293.972, 637.174 292.071, 634.696 282 C 631.650 269.622, 629.303 263.338, 623.692 252.536 C 606.418 219.285, 571.772 193.590, 534.654 186.501 C 525.210 184.697, 507.240 183.939, 498.500 184.976 M 498.539 218.042 C 486.064 220.006, 470.460 226.147, 460.458 233.029 C 452.782 238.310, 442.576 248.526, 437.250 256.260 C 431.115 265.168, 428.423 270.412, 425.330 279.481 C 420.805 292.747, 420 300.961, 420 333.881 L 420 364.500 512.250 364.338 L 604.500 364.176 604.428 330.338 C 604.357 297.243, 604.299 296.290, 601.781 286.930 C 592.824 253.633, 567.412 228.465, 534.079 219.878 C 525.252 217.605, 507.232 216.674, 498.539 218.042 M 394.500 487.447 C 387.142 489.327, 384.384 490.603, 378.004 495.078 C 363.911 504.964, 355.937 523.328, 358.710 539.514 C 361.106 553.507, 370.233 566.648, 381.858 572.844 C 401.692 583.415, 424.248 580.134, 438.776 564.566 C 450.235 552.285, 454.458 536.855, 450.508 521.693 C 443.991 496.672, 418.766 481.248, 394.500 487.447 M 608.500 487.388 C 600.748 489.275, 594.147 492.981, 587.491 499.181 C 576.777 509.162, 572.428 520.275, 573.231 535.623 C 573.648 543.600, 574.208 545.906, 577.322 552.463 C 593.820 587.203, 643.514 587.767, 660.779 553.411 C 678.466 518.215, 646.692 478.088, 608.500 487.388 M 407.990 635.250 C 403.342 638.413, 400.943 642.009, 400.304 646.768 C 399.450 653.138, 402.859 658.852, 414.421 670.432 C 433.938 689.978, 457.178 702.548, 485.053 708.632 C 497.038 711.247, 526.968 711.246, 538.960 708.629 C 566.621 702.592, 590.219 689.859, 609.547 670.541 C 623.672 656.423, 626.604 649.405, 621.882 641.004 C 618.240 634.524, 609.577 631.309, 602.750 633.905 C 601.440 634.403, 595.899 639.280, 590.435 644.744 C 576.563 658.615, 563.673 666.829, 546.743 672.587 C 525.433 679.836, 498.521 679.847, 477.321 672.616 C 460.389 666.841, 444.280 656.442, 432.157 643.461 C 428.304 639.336, 423.880 635.297, 422.326 634.486 C 418.100 632.282, 411.863 632.614, 407.990 635.250" stroke="none" fill="#f5f3f6" fill-rule="evenodd"/></svg>